<svg width="12" height="9" viewBox="0 0 8 7" fill="none" xmlns="http://www.w3.org/2000/svg">
  <path d="M4.39666 2.39607C4.61327 2.49949 4.8019 2.65338 4.9467 2.84482C5.0915 3.03625 5.18824 3.25964 5.2288 3.49622C5.26937 3.7328 5.25256 3.97566 5.1798 4.2044C5.10704 4.43313 4.98045 4.64107 4.81066 4.81074L3.31066 6.31074C3.02935 6.59204 2.64782 6.75008 2.24999 6.75008C1.85217 6.75008 1.47063 6.59204 1.18933 6.31074C0.908021 6.02943 0.749985 5.6479 0.749985 5.25007C0.749985 4.85224 0.908021 4.47071 1.18933 4.1894L1.77499 3.60374M6.22499 3.3964L6.81066 2.81074C7.09197 2.52943 7.25 2.1479 7.25 1.75007C7.25 1.35224 7.09197 0.97071 6.81066 0.689404C6.52935 0.408097 6.14782 0.250061 5.74999 0.250061C5.35217 0.250061 4.97063 0.408097 4.68933 0.689404L3.18933 2.1894C3.01954 2.35907 2.89295 2.56701 2.82019 2.79574C2.74743 3.02448 2.73062 3.26734 2.77118 3.50392C2.81175 3.7405 2.90849 3.96389 3.05329 4.15532C3.19809 4.34676 3.38672 4.50065 3.60333 4.60407" stroke="#334155" stroke-width="0.5" stroke-linecap="round" stroke-linejoin="round"/>
</svg>
