<svg width="157" height="42" viewBox="0 0 157 42" fill="none" xmlns="http://www.w3.org/2000/svg"><path d="M12.25 21h2.065a1.75 1.75 0 011.716 1.407L17.5 29.75l-7.78 5.186C8.559 35.712 7 34.878 7 33.48v-7.23C7 23.35 9.35 21 12.25 21zm17.5 0h-2.065a1.75 1.75 0 00-1.716 1.407L24.5 29.75l7.78 5.186c1.162.776 2.72-.058 2.72-1.456v-7.23c0-2.9-2.35-5.25-5.25-5.25zm-6.71 14h-4.081c-.829 0-1.551.592-1.482 1.417.11 1.301.723 3.12 3.18 3.755.224.058.462.058.685 0 2.457-.635 3.07-2.454 3.18-3.755.07-.825-.653-1.417-1.482-1.417z" fill="#3056D3"/><path d="M12.251 14c1.313-3.937 5.576-8.365 7.627-10.335a1.612 1.612 0 012.246 0c2.052 1.97 6.315 6.398 7.627 10.335 1.353 4.06-.296 11.352-1.525 15.701-.605 2.145-2.591 3.549-4.82 3.549h-4.825c-2.221 0-4.202-1.395-4.811-3.531-1.235-4.332-2.89-11.605-1.519-15.72z" fill="#98AAE9"/><path d="M21 21a3.5 3.5 0 100-7 3.5 3.5 0 000 7z" fill="#3056D3"/><path d="M59.184 15.816h3.929c-.077-3.808-3.324-6.504-8.123-6.504-4.733 0-8.288 2.663-8.276 6.647 0 3.236 2.3 5.096 6.009 6.054l2.564.66c2.433.617 4.04 1.376 4.05 3.126-.01 1.926-1.837 3.214-4.5 3.214-2.554 0-4.536-1.145-4.7-3.511h-4.018c.165 4.48 3.5 7 8.75 7 5.404 0 8.541-2.697 8.552-6.67-.011-3.907-3.236-5.69-6.626-6.494l-2.113-.528c-1.849-.44-3.852-1.222-3.83-3.104.01-1.695 1.53-2.938 4.083-2.938 2.433 0 4.04 1.133 4.249 3.048zm16.143-.561h-3.335v-4.05h-3.984v4.05h-2.4v3.082h2.4v9.399c-.022 3.18 2.29 4.744 5.283 4.656 1.134-.033 1.915-.253 2.344-.397l-.671-3.114a4.97 4.97 0 01-1.167.154c-1.001 0-1.805-.352-1.805-1.96v-8.738h3.335v-3.082zm8.197 17.247c2.653 0 4.237-1.244 4.964-2.664h.132v2.323h3.83V20.846c0-4.468-3.643-5.811-6.868-5.811-3.555 0-6.284 1.585-7.165 4.666l3.72.529c.396-1.156 1.52-2.146 3.467-2.146 1.85 0 2.862.946 2.862 2.608v.066c0 1.145-1.2 1.2-4.183 1.519-3.28.352-6.416 1.332-6.416 5.14 0 3.324 2.432 5.085 5.657 5.085zm1.035-2.928c-1.662 0-2.851-.76-2.851-2.223 0-1.53 1.332-2.168 3.115-2.422 1.045-.143 3.137-.407 3.654-.825v1.992c0 1.882-1.519 3.478-3.918 3.478zm11.897 2.586h3.985v-9.938c0-2.146 1.618-3.665 3.808-3.665.671 0 1.508.12 1.849.23v-3.664a9.575 9.575 0 00-1.431-.11c-1.937 0-3.555 1.1-4.171 3.06h-.176v-2.818h-3.864V32.16zm21.639-16.905h-3.335v-4.05h-3.984v4.05h-2.4v3.082h2.4v9.399c-.022 3.18 2.289 4.744 5.283 4.656 1.133-.033 1.915-.253 2.344-.397l-.671-3.114a4.982 4.982 0 01-1.167.154c-1.002 0-1.805-.352-1.805-1.96v-8.738h3.335v-3.082zm14.107 9.795c0 2.576-1.838 3.853-3.599 3.853-1.915 0-3.192-1.354-3.192-3.5V15.255h-3.984v10.764c0 4.061 2.311 6.362 5.635 6.362 2.532 0 4.315-1.332 5.085-3.225h.176v3.005h3.863V15.255h-3.984v9.795zm8.081 13.45h3.985v-9.003h.165c.627 1.233 1.937 2.96 4.843 2.96 3.984 0 6.967-3.158 6.967-8.727 0-5.636-3.071-8.695-6.978-8.695-2.983 0-4.227 1.794-4.832 3.015h-.231v-2.795h-3.919V38.5zm3.908-14.792c0-3.28 1.408-5.404 3.973-5.404 2.652 0 4.017 2.256 4.017 5.404 0 3.17-1.387 5.48-4.017 5.48-2.543 0-3.973-2.2-3.973-5.48z" fill="#000"/></svg>